<svg xmlns="http://www.w3.org/2000/svg" width="1em" height="1em" fill="none" viewBox="0 0 98 109" class="size-52"><path fill="url(#eskenas_svg__a)" d="M90.901 99.856h-4.176a.404.404 0 0 0-.401.407v1.585c0 .376-.1.746-.29 1.067l-2.82 5.586a.327.327 0 0 0 .277.496h4.234c.115 0 .22-.061.278-.162l3.013-5.941c.19-.321.29-.691.29-1.065v-1.569a.404.404 0 0 0-.402-.407z"></path><path fill="url(#eskenas_svg__b)" d="m97.257 90.578-3.49-2.264a.319.319 0 0 0-.492.272v13.54c0 .376-.1.747-.29 1.068l-2.808 5.283a.343.343 0 0 0 .29.52h4.19a.34.34 0 0 0 .296-.177l2.784-5.057c.17-.309.26-.988.26-1.343V91.945c0-.556-.278-1.073-.74-1.37z"></path><path fill="url(#eskenas_svg__c)" d="M52.023 98.48v5.638c0 .25-.088.492-.248.685l-3.198 3.824c-.199.238-.489.376-.797.376h-5.846c-3.152 0-5.706-2.928-5.688-6.124l.06-11.518c.003-.6.3-1.16.788-1.499l3.044-2.099c.263-.18.616.01.616.33v15.183c0 .526.42 1.282.939 1.282h5.858v-1.75c0-.342.133-.673.371-.917l3.539-3.64a.326.326 0 0 1 .559.232z"></path><path fill="url(#eskenas_svg__d)" d="M83.947 99.856h-4.176a.404.404 0 0 0-.401.407v1.585c0 .376-.1.746-.29 1.067l-2.82 5.586a.327.327 0 0 0 .278.496h4.233c.115 0 .22-.061.278-.162l3.013-5.941c.19-.321.29-.691.29-1.065v-1.569a.404.404 0 0 0-.402-.407z"></path><path fill="url(#eskenas_svg__e)" d="M76.994 99.856h-4.176a.404.404 0 0 0-.402.407v1.585c0 .376-.1.746-.29 1.067l-2.82 5.586a.327.327 0 0 0 .278.496h4.233c.115 0 .22-.061.278-.162l3.013-5.941c.19-.321.29-.691.29-1.065v-1.569a.404.404 0 0 0-.401-.407z"></path><path fill="url(#eskenas_svg__f)" d="M34.09 99.856h-4.176a.404.404 0 0 0-.402.407v1.585c0 .376-.1.746-.29 1.067l-2.82 5.586a.327.327 0 0 0 .278.496h4.233c.115 0 .22-.061.278-.162l3.014-5.941c.19-.321.29-.691.29-1.065v-1.569a.404.404 0 0 0-.402-.407z"></path><path fill="url(#eskenas_svg__g)" d="M27.396 99.856H23.22a.404.404 0 0 0-.402.407v1.585c0 .376-.1.746-.29 1.067l-2.82 5.586a.327.327 0 0 0 .278.496h4.233c.115 0 .22-.061.278-.162l3.013-5.941c.19-.321.29-.691.29-1.065v-1.569a.404.404 0 0 0-.401-.407z"></path><path fill="url(#eskenas_svg__h)" d="M20.837 100.306v1.676c0 .279-.072.548-.214.786l-2.47 5.008a2.46 2.46 0 0 1-2.117 1.221H6.588a5.01 5.01 0 0 1-4.486-2.808l-1.55-2.114c-1.594-3.228.4-7.358 3.962-7.358h6.332c.335 0 .528.383.335.658l-2.27 3.222a1.46 1.46 0 0 1-1.193.621H4.822a.639.639 0 0 0-.531.985l1.99 2.046a.64.64 0 0 0 .54.3h7.506c.311 0 .601-.153.78-.41l.636-1.631a1.6 1.6 0 0 0 .112-.578v-1.627c0-.248.2-.45.444-.45h4.095c.244 0 .443.202.443.45z"></path><path fill="url(#eskenas_svg__i)" d="M70.653 100.939v.572c0 .585-.157 1.16-.45 1.661l-1.685 3.118a5.45 5.45 0 0 1-4.695 2.707H52.608a.367.367 0 0 1-.365-.37v-3.705c0-.205.163-.37.365-.37H63.63c.514 0 .99-.278 1.25-.728l1.32-2.545a.226.226 0 0 0-.193-.34H54.447a.893.893 0 0 1-.888-.899v-5.791c0-.471.248-.906.65-1.141l11.555-6.752a.531.531 0 0 1 .797.468v3.867a.91.91 0 0 1-.453.79l-8.614 4.961h8.711c1.226 0 2.34.505 3.143 1.319a4.46 4.46 0 0 1 1.169 2.098c.087.346.133.71.133 1.083z"></path><path fill="url(#eskenas_svg__j)" d="m48.104 99.364 2.617-2.652a.713.713 0 0 0 0-1l-2.617-2.652a.69.69 0 0 0-.987 0L44.5 95.712a.713.713 0 0 0 0 1l2.617 2.652a.69.69 0 0 0 .987 0"></path><path fill="url(#eskenas_svg__k)" d="M69.511 42.635c-1.244 1.2-6.498 3.6-12.627 6.222a27 27 0 0 0-1.15-.81c-1.12-.704-1.465-1.056-1.417-3.093l.06-16.657c.127-.649 1.118-.979 1.806-.609l13.503 7.263-.223-.11c3.578 2.802 2.497 5.824.048 7.794"></path><path fill="url(#eskenas_svg__l)" d="M74.216 42.182c-.441 1.169-1.41 2.182-2.618 2.962-.806.63-2.947 1.51-5.855 2.53-2.092.734-4.584 1.538-7.259 2.37-5.088 1.585-10.84 3.264-15.774 4.742 4.306-1.808 9.494-3.931 14.174-5.929 6.13-2.621 11.383-5.023 12.627-6.222 2.45-1.97 3.53-4.992-.048-7.794q.114.054.223.11.022.01.043.021.464.233.875.471a12.7 12.7 0 0 1 2.138 1.493q-.162-.102-.332-.208c.115.11.22.217.323.327 1.763 1.86 2.06 3.625 1.483 5.127"></path><path fill="url(#eskenas_svg__m)" d="M74.853 52.229c.039 3.196-.988 6.678-3.778 8.446-9.24 5.849-30.481 12.646-30.481 12.646-.816.484-1.954.245-2.473-.517l-4.578-11.49c-.643-.945-.34-2.141.686-2.716 1.419-.796 4.59-2.175 8.481-3.812 11.124-3.331 26.39-7.694 28.888-9.642 2.862-1.848 4.363-4.987.812-8.416q.17.105.332.208l.006.006c1.486 1.312 1.954 2.536 2.066 3.399.1.77.039 11.887.039 11.887"></path><path fill="url(#eskenas_svg__n)" d="m51.6 28.618-.06 16.66c-.127.646-1.118.98-1.806.606L36.188 38.6q.13.066.266.132c-3.578-2.803-2.497-5.825-.048-7.795 1.244-1.2 6.498-3.6 12.624-6.22.517.374.94.677 1.154.811 1.12.701 1.464 1.053 1.416 3.09"></path><path fill="url(#eskenas_svg__o)" d="M36.454 38.729c-.09-.043-.178-.09-.266-.132l-.045-.021a19 19 0 0 1-.9-.49 12.5 12.5 0 0 1-2.068-1.453c.109.067.217.138.332.208-.109-.107-.214-.21-.314-.318-1.772-1.863-2.068-3.631-1.492-5.136.441-1.169 1.41-2.181 2.618-2.962.806-.63 2.947-1.51 5.855-2.53 2.093-.734 4.584-1.538 7.259-2.37 5.088-1.585 10.84-3.264 15.774-4.742-4.306 1.808-9.497 3.934-14.177 5.932-6.126 2.618-11.38 5.02-12.624 6.219-2.449 1.97-3.53 4.992.048 7.795"></path><path fill="url(#eskenas_svg__p)" d="M31.064 21.344c-.039-3.197.988-6.679 3.778-8.447C44.082 7.048 65.323.251 65.323.251c.816-.483 1.954-.245 2.473.517l4.578 11.49c.643.945.34 2.141-.686 2.717-1.419.795-4.59 2.175-8.481 3.811-11.124 3.331-26.39 7.694-28.888 9.642-2.862 1.848-4.363 4.987-.812 8.416-.115-.07-.223-.14-.332-.208l-.006-.006c-1.486-1.312-1.954-2.536-2.065-3.399-.1-.77-.04-11.887-.04-11.887"></path><defs><linearGradient id="eskenas_svg__a" x1="101.5" x2="46.24" y1="104.427" y2="104.427" gradientUnits="userSpaceOnUse"><stop offset="0.13" stop-color="#53AE94"></stop><stop offset="1" stop-color="#32C2E4"></stop></linearGradient><linearGradient id="eskenas_svg__b" x1="101.5" x2="46.24" y1="98.633" y2="98.633" gradientUnits="userSpaceOnUse"><stop offset="0.13" stop-color="#53AE94"></stop><stop offset="1" stop-color="#32C2E4"></stop></linearGradient><linearGradient id="eskenas_svg__c" x1="101.5" x2="46.24" y1="98.345" y2="98.345" gradientUnits="userSpaceOnUse"><stop offset="0.13" stop-color="#53AE94"></stop><stop offset="1" stop-color="#32C2E4"></stop></linearGradient><linearGradient id="eskenas_svg__d" x1="101.5" x2="46.24" y1="104.427" y2="104.427" gradientUnits="userSpaceOnUse"><stop offset="0.13" stop-color="#53AE94"></stop><stop offset="1" stop-color="#32C2E4"></stop></linearGradient><linearGradient id="eskenas_svg__e" x1="101.5" x2="46.24" y1="104.427" y2="104.427" gradientUnits="userSpaceOnUse"><stop offset="0.13" stop-color="#53AE94"></stop><stop offset="1" stop-color="#32C2E4"></stop></linearGradient><linearGradient id="eskenas_svg__f" x1="45.911" x2="-1.09" y1="104.427" y2="104.427" gradientUnits="userSpaceOnUse"><stop offset="0.11" stop-color="#057CD6"></stop><stop offset="0.54" stop-color="#057BD4"></stop><stop offset="0.71" stop-color="#0679CD"></stop><stop offset="0.83" stop-color="#0976C1"></stop><stop offset="0.93" stop-color="#0C71B0"></stop><stop offset="1" stop-color="#106C9D"></stop></linearGradient><linearGradient id="eskenas_svg__g" x1="45.911" x2="-1.09" y1="104.427" y2="104.427" gradientUnits="userSpaceOnUse"><stop offset="0.11" stop-color="#057CD6"></stop><stop offset="0.54" stop-color="#057BD4"></stop><stop offset="0.71" stop-color="#0679CD"></stop><stop offset="0.83" stop-color="#0976C1"></stop><stop offset="0.93" stop-color="#0C71B0"></stop><stop offset="1" stop-color="#106C9D"></stop></linearGradient><linearGradient id="eskenas_svg__h" x1="45.911" x2="-1.09" y1="102.86" y2="102.86" gradientUnits="userSpaceOnUse"><stop offset="0.11" stop-color="#057CD6"></stop><stop offset="0.54" stop-color="#057BD4"></stop><stop offset="0.71" stop-color="#0679CD"></stop><stop offset="0.83" stop-color="#0976C1"></stop><stop offset="0.93" stop-color="#0C71B0"></stop><stop offset="1" stop-color="#106C9D"></stop></linearGradient><linearGradient id="eskenas_svg__i" x1="101.5" x2="46.24" y1="97.641" y2="97.641" gradientUnits="userSpaceOnUse"><stop offset="0.13" stop-color="#53AE94"></stop><stop offset="1" stop-color="#32C2E4"></stop></linearGradient><linearGradient id="eskenas_svg__j" x1="45.913" x2="-1.088" y1="96.213" y2="96.213" gradientUnits="userSpaceOnUse"><stop offset="0.11" stop-color="#057CD6"></stop><stop offset="0.54" stop-color="#057BD4"></stop><stop offset="0.71" stop-color="#0679CD"></stop><stop offset="0.83" stop-color="#0976C1"></stop><stop offset="0.93" stop-color="#0C71B0"></stop><stop offset="1" stop-color="#106C9D"></stop></linearGradient><linearGradient id="eskenas_svg__k" x1="71.764" x2="54.311" y1="38.193" y2="38.193" gradientUnits="userSpaceOnUse"><stop stop-color="#0B4584"></stop><stop offset="1" stop-color="#1A5D99"></stop></linearGradient><linearGradient id="eskenas_svg__m" x1="32.819" x2="71.569" y1="62.966" y2="50.339" gradientUnits="userSpaceOnUse"><stop offset="0.13" stop-color="#53AE94"></stop><stop offset="1" stop-color="#32C2E4"></stop></linearGradient><linearGradient id="eskenas_svg__n" x1="51.603" x2="34.153" y1="35.379" y2="35.379" gradientUnits="userSpaceOnUse"><stop stop-color="#0B4584"></stop><stop offset="1" stop-color="#1A5D99"></stop></linearGradient><linearGradient id="eskenas_svg__p" x1="73.098" x2="34.348" y1="10.603" y2="23.23" gradientUnits="userSpaceOnUse"><stop offset="0.14" stop-color="#53AE94"></stop><stop offset="1" stop-color="#32C2E4"></stop></linearGradient><radialGradient id="eskenas_svg__l" cx="0" cy="0" r="1" gradientTransform="matrix(17.81645 -7.28553 2.57389 6.29433 58.083 43.36)" gradientUnits="userSpaceOnUse"><stop offset="0.11" stop-color="#057CD6"></stop><stop offset="0.54" stop-color="#057BD4"></stop><stop offset="0.71" stop-color="#0679CD"></stop><stop offset="0.83" stop-color="#0976C1"></stop><stop offset="0.93" stop-color="#0C71B0"></stop><stop offset="1" stop-color="#106C9D"></stop></radialGradient><radialGradient id="eskenas_svg__o" cx="0" cy="0" r="1" gradientTransform="matrix(17.81645 -7.28553 2.57389 6.29433 46.808 27.3)" gradientUnits="userSpaceOnUse"><stop offset="0.11" stop-color="#057CD6"></stop><stop offset="0.54" stop-color="#057BD4"></stop><stop offset="0.71" stop-color="#0679CD"></stop><stop offset="0.83" stop-color="#0976C1"></stop><stop offset="0.93" stop-color="#0C71B0"></stop><stop offset="1" stop-color="#106C9D"></stop></radialGradient></defs></svg>