<svg width="24" height="24" viewBox="0 0 24 24" fill="none" xmlns="http://www.w3.org/2000/svg">
    <g clip-path="url(#clip0_16918_25904)">
        <path
            d="M7.43482 22H3.52182C3.16178 22 2.86963 21.7079 2.86963 21.3478V2.65219C2.86963 2.29215 3.16174 2 3.52182 2H7.43482C7.79486 2 8.08701 2.29215 8.08701 2.65219V21.3479C8.08701 21.7079 7.7949 22 7.43482 22Z"
            fill="#000" />
        <path
            d="M20.4783 21.9999H16.5653C16.2052 21.9999 15.9131 21.7078 15.9131 21.3477V7.86947C15.9131 7.50943 16.2052 7.21729 16.5653 7.21729H20.4783C20.8384 7.21729 21.1305 7.50943 21.1305 7.86947V21.3477C21.1305 21.7078 20.8384 21.9999 20.4783 21.9999Z"
            fill="#000" />
        <path
            d="M13.9563 21.9998H10.0433C9.68326 21.9998 9.39111 21.7077 9.39111 21.3476V13.0868C9.39111 12.7267 9.68326 12.4346 10.0433 12.4346H13.9563C14.3164 12.4346 14.6085 12.7267 14.6085 13.0868V21.3476C14.6085 21.7077 14.3164 21.9998 13.9563 21.9998Z"
            fill="#000" />
        <path
            d="M13.9565 12.4346H12V21.9998H13.9565C14.3166 21.9998 14.6087 21.7077 14.6087 21.3476V13.0868C14.6087 12.7267 14.3166 12.4346 13.9565 12.4346Z"
            fill="#000" />
    </g>
    <defs>
        <clipPath id="clip0_16918_25904">
            <rect width="20" height="20" fill="white" transform="translate(2 2)" />
        </clipPath>
    </defs>
</svg>