<svg width="24" height="24" viewBox="0 0 24 24" fill="none" xmlns="http://www.w3.org/2000/svg">
<path opacity="0.4" d="M6.75968 22H17.2397C19.9997 22 21.0997 20.31 21.2297 18.25L21.7497 9.99C21.8897 7.83 20.1697 6 17.9997 6C17.3897 6 16.8297 5.65 16.5497 5.11L15.8297 3.66C15.3697 2.75 14.1697 2 13.1497 2H10.8597C9.82968 2 8.62968 2.75 8.16968 3.66L7.44968 5.11C7.16968 5.65 6.60968 6 5.99968 6C3.82968 6 2.10968 7.83 2.24968 9.99L2.76968 18.25C2.88968 20.31 3.99968 22 6.75968 22Z" fill="url(#paint0_linear_15074_22312)"/>
<path d="M13.5 8.75H10.5C10.09 8.75 9.75 8.41 9.75 8C9.75 7.59 10.09 7.25 10.5 7.25H13.5C13.91 7.25 14.25 7.59 14.25 8C14.25 8.41 13.91 8.75 13.5 8.75Z" fill="url(#paint1_linear_15074_22312)"/>
<path d="M12.0001 18.1301C13.8668 18.1301 15.3801 16.6168 15.3801 14.7501C15.3801 12.8834 13.8668 11.3701 12.0001 11.3701C10.1334 11.3701 8.62012 12.8834 8.62012 14.7501C8.62012 16.6168 10.1334 18.1301 12.0001 18.1301Z" fill="url(#paint2_linear_15074_22312)"/>
<defs>
<linearGradient id="paint0_linear_15074_22312" x1="21.7577" y1="22" x2="1.76366" y2="2.48989" gradientUnits="userSpaceOnUse">
<stop stop-color="#185A97"/>
<stop offset="1" stop-color="#53AE94"/>
</linearGradient>
<linearGradient id="paint1_linear_15074_22312" x1="14.25" y1="8.75" x2="13.35" y2="6.05" gradientUnits="userSpaceOnUse">
<stop stop-color="#185A97"/>
<stop offset="1" stop-color="#53AE94"/>
</linearGradient>
<linearGradient id="paint2_linear_15074_22312" x1="15.3801" y1="18.1301" x2="8.62012" y2="11.3701" gradientUnits="userSpaceOnUse">
<stop stop-color="#185A97"/>
<stop offset="1" stop-color="#53AE94"/>
</linearGradient>
</defs>
</svg>
