<svg width="24" height="24" viewBox="0 0 24 24" fill="none" xmlns="http://www.w3.org/2000/svg">
<path opacity="0.4" d="M12.0005 22C17.5233 22 22.0005 17.5228 22.0005 12C22.0005 6.47715 17.5233 2 12.0005 2C6.47764 2 2.00049 6.47715 2.00049 12C2.00049 17.5228 6.47764 22 12.0005 22Z" fill="#F44336"/>
<path d="M13.0599 12.0001L15.3599 9.70011C15.6499 9.41011 15.6499 8.93011 15.3599 8.64011C15.0699 8.35011 14.5899 8.35011 14.2999 8.64011L11.9999 10.9401L9.69986 8.64011C9.40986 8.35011 8.92986 8.35011 8.63986 8.64011C8.34986 8.93011 8.34986 9.41011 8.63986 9.70011L10.9399 12.0001L8.63986 14.3001C8.34986 14.5901 8.34986 15.0701 8.63986 15.3601C8.78986 15.5101 8.97986 15.5801 9.16986 15.5801C9.35986 15.5801 9.54986 15.5101 9.69986 15.3601L11.9999 13.0601L14.2999 15.3601C14.4499 15.5101 14.6399 15.5801 14.8299 15.5801C15.0199 15.5801 15.2099 15.5101 15.3599 15.3601C15.6499 15.0701 15.6499 14.5901 15.3599 14.3001L13.0599 12.0001Z" fill="#F44336"/>
</svg>
