<svg width="24" height="24" viewBox="0 0 24 24" fill="none" xmlns="http://www.w3.org/2000/svg">
<path d="M13.7612 13.3164C10.8114 13.3164 8.41943 15.7084 8.41943 18.6582C8.41943 21.608 10.8114 24 13.7612 24C16.7123 24 19.103 21.608 19.103 18.6582C19.103 15.7084 16.7122 13.3164 13.7612 13.3164ZM15.5061 20.145C15.4086 20.327 15.2741 20.4792 15.1041 20.6041C14.9351 20.729 14.7317 20.8217 14.4938 20.8824C14.3904 20.9097 14.2833 20.9276 14.1727 20.9419V21.6318H13.3495V20.9562C13.1164 20.9371 12.8916 20.9003 12.6811 20.842C12.3588 20.754 11.9365 20.3983 11.9365 20.3983C11.9008 20.3769 11.8771 20.34 11.8711 20.2984C11.8663 20.258 11.8807 20.2163 11.9104 20.1854L12.3232 19.7739C12.3672 19.7299 12.4361 19.7215 12.4897 19.7548C12.4897 19.7548 12.799 20.0225 13.0321 20.0867C13.2653 20.1497 13.4972 20.1806 13.7291 20.1806C14.0205 20.1806 14.262 20.1295 14.4535 20.0271C14.645 19.9225 14.7402 19.7619 14.7402 19.5431C14.7402 19.386 14.6938 19.26 14.5987 19.1696C14.5047 19.0792 14.3453 19.0221 14.1205 18.996L13.3819 18.9329C12.9454 18.8901 12.6076 18.7688 12.3709 18.5678C12.1342 18.3667 12.0152 18.0634 12.0152 17.6566C12.0152 17.4318 12.0605 17.232 12.1533 17.0548C12.2437 16.8799 12.3685 16.73 12.5256 16.6088C12.6838 16.4874 12.8681 16.3971 13.0775 16.3364C13.1655 16.3102 13.2571 16.2948 13.3499 16.2781V15.6846H14.173V16.2662C14.3645 16.2853 14.5477 16.3162 14.7177 16.3626C15.0056 16.4423 15.3089 16.679 15.3089 16.679C15.347 16.698 15.3732 16.7361 15.3803 16.7777C15.3863 16.8206 15.372 16.8633 15.3423 16.8931L14.9557 17.2868C14.9141 17.3272 14.851 17.338 14.7987 17.3106C14.7987 17.3106 14.5691 17.1489 14.3717 17.0965C14.1743 17.0441 13.9661 17.0192 13.7472 17.0192C13.4618 17.0192 13.2501 17.0739 13.1144 17.1833C12.9776 17.2928 12.9098 17.4366 12.9098 17.6115C12.9098 17.7685 12.9574 17.891 13.0549 17.9754C13.1524 18.0611 13.3154 18.117 13.5473 18.1396L14.1932 18.1954C14.6737 18.2371 15.0377 18.3644 15.2815 18.5773C15.5289 18.7902 15.6526 19.0994 15.6526 19.5062C15.6524 19.7513 15.6037 19.9618 15.5061 20.145Z" fill="#000"/>
<path d="M10.6757 8.87165C10.6757 9.89103 8.73335 10.7177 6.33787 10.7177C3.94117 10.7177 2 9.89103 2 8.87165C2 7.85112 3.94117 7.02441 6.33787 7.02441C8.73342 7.02441 10.6757 7.85105 10.6757 8.87165Z" fill="#000"/>
<path d="M2.00008 11.9965C2.00008 13.017 3.94125 13.8437 6.33794 13.8437C8.7335 13.8437 10.6758 13.0171 10.6758 11.9965V11.5373C10.6758 11.397 10.6056 11.265 10.4867 11.1865C10.369 11.1091 10.2203 11.0961 10.0906 11.152C10.0906 11.152 8.7335 11.9894 6.33794 11.9894C3.94125 11.9894 2.58524 11.152 2.58524 11.152C2.45439 11.0961 2.30572 11.1091 2.18795 11.1865C2.07019 11.265 2 11.3971 2 11.5373V11.9965H2.00008Z" fill="#000"/>
<path d="M7.73909 15.1211C7.3858 15.717 7.12294 16.3664 6.96239 17.0564C6.75663 17.0694 6.54965 17.0754 6.33673 17.0754C3.94239 17.0754 2 16.2475 2 15.227V14.7703C2 14.6287 2.06897 14.4967 2.18795 14.4182C2.3045 14.3408 2.45439 14.3278 2.58403 14.3825C2.58403 14.3825 3.94239 15.2211 6.33673 15.2211C6.85414 15.2211 7.32162 15.183 7.73909 15.1211Z" fill="#000"/>
<path d="M6.96711 20.2863C6.76249 20.2994 6.54964 20.3054 6.33672 20.3054C3.94239 20.3054 2 19.4775 2 18.4593V18.0002C2 17.8587 2.06897 17.7267 2.18795 17.6482C2.3045 17.5708 2.45439 17.5577 2.58403 17.6125C2.58403 17.6125 3.94239 18.4511 6.33672 18.4511C6.48897 18.4511 6.63528 18.4487 6.77924 18.4428C6.77444 18.5153 6.77444 18.5867 6.77444 18.6593C6.77436 19.2182 6.83983 19.763 6.96711 20.2863Z" fill="#000"/>
<path d="M8.5253 23.2797C7.88418 23.4438 7.13603 23.5342 6.33673 23.5342C3.94239 23.5342 2 22.7064 2 21.6882V21.2291C2 21.0876 2.06897 20.9555 2.18795 20.877C2.3045 20.8009 2.45439 20.7866 2.58403 20.8426C2.58403 20.8426 3.94239 21.6799 6.33673 21.6799C6.72922 21.6799 7.09797 21.6585 7.43223 21.6193C7.7177 22.2258 8.08523 22.7849 8.5253 23.2797Z" fill="#000"/>
<path d="M22.5307 1.84723C22.5307 2.86775 20.5883 3.69446 18.1928 3.69446C15.7962 3.69446 13.855 2.86783 13.855 1.84723C13.855 0.827852 15.7962 0 18.1928 0C20.5883 7.61243e-05 22.5307 0.827928 22.5307 1.84723Z" fill="#000"/>
<path d="M13.8551 8.93469C13.8551 9.95522 15.7962 10.7807 18.1929 10.7807C20.5885 10.7807 22.5308 9.95522 22.5308 8.93469V8.47559C22.5308 8.33407 22.4606 8.20322 22.3417 8.12473C22.2239 8.04739 22.0753 8.03316 21.9456 8.08903C21.9456 8.08903 20.5885 8.92762 18.1929 8.92762C15.7962 8.92762 14.4402 8.08903 14.4402 8.08903C14.3094 8.03316 14.1607 8.04739 14.0429 8.12473C13.9252 8.20322 13.855 8.33407 13.855 8.47559V8.93469H13.8551Z" fill="#000"/>
<path d="M13.8551 5.43343C13.8551 6.45395 15.7962 7.28066 18.1929 7.28066C20.5885 7.28066 22.5308 6.45402 22.5308 5.43343V4.97546C22.5308 4.83395 22.4606 4.70187 22.3417 4.62461C22.2239 4.54612 22.0753 4.53303 21.9456 4.5889C21.9456 4.5889 20.5885 5.42749 18.1929 5.42749C15.7962 5.42749 14.4402 4.5889 14.4402 4.5889C14.3094 4.53303 14.1607 4.54604 14.0429 4.62461C13.9252 4.70195 13.855 4.83395 13.855 4.97546V5.43343H13.8551Z" fill="#000"/>
<path d="M22.3413 18.6257C22.2236 18.5484 22.0749 18.5341 21.9453 18.59C21.9453 18.59 21.4731 18.8791 20.6012 19.1182C20.556 19.8033 20.4109 20.4598 20.1777 21.076C21.5742 20.7691 22.5304 20.1506 22.5304 19.4357V18.9766C22.5305 18.8351 22.4603 18.7042 22.3413 18.6257Z" fill="#000"/>
<path d="M22.3414 15.125C22.2236 15.0476 22.0749 15.0345 21.9453 15.0905C21.9453 15.0905 21.2471 15.5187 19.9756 15.7625C20.2289 16.3049 20.4133 16.8841 20.518 17.492C21.7264 17.1649 22.5305 16.5904 22.5305 15.935V15.477C22.5305 15.3355 22.4604 15.2035 22.3414 15.125Z" fill="#000"/>
<path d="M22.3417 11.6252C22.224 11.5479 22.0753 11.5336 21.9456 11.5895C21.9456 11.5895 20.5885 12.4281 18.1929 12.4281C17.3044 12.4281 16.5599 12.3127 15.9746 12.1676C17.1688 12.5756 18.2167 13.3012 19.0136 14.2479C21.0155 14.0838 22.5308 13.3357 22.5308 12.4352V11.9761C22.5309 11.8346 22.4607 11.7038 22.3417 11.6252Z" fill="#000"/>
</svg>
