<svg xmlns="http://www.w3.org/2000/svg" width="1em" height="1em" viewBox="0 0 120 105" fill="none">
  <rect
    width="44.724"
    height="63.014"
    x="0.692"
    y="36.038"
    rx="3.5"
    fill="#18181A"
    stroke="#38383A"
    stroke-dasharray="4 2"
    transform="rotate(-32.985 .692 36.038)"
  />
  <rect
    width="44.724"
    height="63.014"
    x="-0.679"
    y="0.197"
    rx="3.5"
    fill="#18181A"
    stroke="#38383A"
    stroke-dasharray="4 2"
    transform="scale(-1 1) rotate(-28.804 3.692 247.562)"
  />
  <rect
    width="49.324"
    height="69.453"
    x="37.008"
    y="0.5"
    rx="3.5"
    fill="#18181A"
    stroke="#38383A"
    stroke-dasharray="4 2"
  />
  <ellipse cx="60" cy="102.875" rx="32" ry="2" fill="#2C2C2E" />
  <path
    stroke="#38383A"
    stroke-linecap="round"
    d="m52.84 15.094 17.613 17.613M70.453 15.094 52.84 32.707"
  />
  <g clip-path="url(#clip)">
    <path fill="#2C2C2E"
      d="m89.457 68.95 1.453 1.454 1.699 1.69.654.66 3.39-3.393-3.8-3.806-3.396 3.395Z" />
    <path fill="#38383A"
      d="m100.107 69.336 11.698 11.697a4.826 4.826 0 0 1 1.422 3.435 4.846 4.846 0 0 1-4.857 4.857 4.842 4.842 0 0 1-3.435-1.42L93.238 76.207l6.869-6.871Z" />
    <path fill="#464649"
      d="m98.492 70.952.95-.952 11.699 11.698a3.883 3.883 0 0 1 1.144 2.769c0 1.049-.407 2.034-1.144 2.774a.68.68 0 0 1-.955-.002.674.674 0 0 1 0-.948 2.56 2.56 0 0 0 .754-1.826 2.543 2.543 0 0 0-.75-1.816L98.492 70.953Z" />
    <path fill="#2C2C2E"
      d="m93.24 76.204 6.87-6.871-.512-.514a1.686 1.686 0 0 0-1.202-.499c-.473 0-.897.188-1.204.497l-4.467 4.47a1.686 1.686 0 0 0-.498 1.202c0 .466.19.896.498 1.198l.515.517Z" />
    <path fill="#1C1C1E"
      d="M54.098 52.157c0-12.127 9.833-21.962 21.962-21.962 12.13 0 21.963 9.835 21.963 21.962 0 12.13-9.834 21.963-21.963 21.965-12.13-.002-21.962-9.835-21.962-21.965Z" />
    <path fill="#2C2C2E"
      d="M76.062 71.74c10.814 0 19.585-8.768 19.585-19.587 0-10.812-8.771-19.583-19.585-19.583-10.816 0-19.585 8.77-19.585 19.584 0 10.818 8.77 19.586 19.585 19.586Z" />
    <path fill="#1C1C1E"
      d="M76.06 70.176c9.95 0 18.018-8.065 18.018-18.019 0-9.947-8.069-18.016-18.017-18.016-9.949 0-18.018 8.07-18.018 18.016 0 9.953 8.067 18.019 18.018 18.019Z" />
    <path fill="#2C2C2E"
      d="M76.534 37.1a1.596 1.596 0 0 0-1.415-.707 15.672 15.672 0 0 0-6.985 2.099 1.597 1.597 0 0 0-.575 2.177 1.589 1.589 0 0 0 2.17.57 12.59 12.59 0 0 1 5.576-1.67 1.579 1.579 0 0 0 1.491-1.672 1.5 1.5 0 0 0-.262-.797ZM66.333 42.327a1.582 1.582 0 0 0-2.55-.113 15.733 15.733 0 0 0-3.233 6.928 15.72 15.72 0 0 0 .88 8.951 1.59 1.59 0 0 0 2.079.867c.813-.33 1.2-1.255.867-2.073a12.51 12.51 0 0 1-.694-7.141 12.435 12.435 0 0 1 2.57-5.529c.45-.553.462-1.33.08-1.89Z" />
  </g>
  <defs>
    <clipPath id="clip">
      <path d="M54.098 30.195h59.13v59.13h-59.13z" />
    </clipPath>
  </defs>
</svg>