<svg width="24" height="24" viewBox="0 0 24 24" fill="none" xmlns="http://www.w3.org/2000/svg">
    <path
        d="M0.0189478 20.1016C-0.0130954 20.2079 -0.00425496 20.323 0.0436323 20.4228C0.0915195 20.5226 0.174772 20.5995 0.276093 20.6375L6.51658 22.9997V17.5524C5.95043 17.3495 1.78425 15.8781 1.33467 15.7177L0.0189478 20.1016ZM14.6081 18.2018L10.9395 14.9506L7.36001 17.474C7.35916 18.227 7.36001 22.2791 7.36001 22.9386L14.6081 18.2018ZM7.20787 11.6387L1.81125 14.9683L6.87487 16.7591L10.2778 14.3623L7.20787 11.6387Z"
        fill="#A5A8A9" />
    <path
        d="M4.09552 7.15696C4.04608 7.24222 4.02744 7.3428 4.04289 7.4409C4.05834 7.539 4.1069 7.62828 4.17995 7.69293L16.9343 19.0017C17.1302 17.7912 17.5129 15.3917 17.7105 14.1515L6.22896 3.49249L4.09552 7.15696ZM22.2727 11.4712L11.896 2.10254C11.8487 2.06129 11.7932 2.03133 11.7334 2.01479C11.6736 1.99825 11.6111 1.99555 11.5502 2.00686L6.87011 2.9614C7.25583 3.31576 18.2166 13.4981 18.2166 13.4981C19.2508 12.9799 21.2608 11.9824 22.2727 11.4712ZM22.6357 12.2211C21.2629 12.9078 19.8896 13.5933 18.5158 14.2777L17.7358 19.1235L22.7745 16.57C22.8486 16.5333 22.9098 16.4739 22.9498 16.3998C22.9898 16.3257 23.0066 16.2406 22.9978 16.1562L22.6357 12.2211Z"
        fill="#FFBE0B" />
</svg>