<svg width="24" height="24" viewBox="0 0 24 24" fill="none" xmlns="http://www.w3.org/2000/svg">
    <path
        d="M3.40666 16.5107C4.34671 18.4112 5.87132 19.9604 7.75666 20.9306C9.62848 21.8917 11.7626 22.2163 13.8355 21.8551C15.9149 21.4895 17.8199 20.4604 19.2655 18.9218C20.7246 17.3686 21.6535 15.3928 21.9189 13.2784C22.1884 11.1593 21.7825 9.00904 20.7589 7.134C19.7448 5.27325 18.1599 3.78734 16.2378 2.89512C14.3285 2.01086 12.1829 1.77368 10.1267 2.21957C8.0711 2.66512 6.38666 3.67845 4.99333 5.28067C4.82555 5.45845 4.17666 6.17623 3.63778 7.25956M6.99999 7.55511L2.99 8.35511L2 4.22179M12 8.66622V13.1107L15.3333 15.3329"
        stroke="currentColor" stroke-width="1.5" stroke-linecap="round" stroke-linejoin="round" />
</svg>