<svg width="24" height="24" viewBox="0 0 24 24" fill="none" xmlns="http://www.w3.org/2000/svg">
<path opacity="0.4" d="M12.0001 21.93C6.9601 21.93 2.8501 17.83 2.8501 12.78V10.9C2.8501 10.51 3.1701 10.2 3.5501 10.2C3.9301 10.2 4.2501 10.52 4.2501 10.9V12.78C4.2501 17.05 7.7201 20.52 11.9901 20.52C16.2601 20.52 19.7301 17.05 19.7301 12.78V10.9C19.7301 10.51 20.0501 10.2 20.4301 10.2C20.8101 10.2 21.1301 10.52 21.1301 10.9V12.78C21.1501 17.83 17.0401 21.93 12.0001 21.93Z" fill="url(#paint0_linear_15074_22313)"/>
<path d="M12.0004 2C8.64039 2 5.90039 4.74 5.90039 8.1V12.79C5.90039 16.15 8.64039 18.89 12.0004 18.89C15.3604 18.89 18.1004 16.15 18.1004 12.79V8.1C18.1004 4.74 15.3604 2 12.0004 2ZM14.1804 10.59C14.1104 10.86 13.8604 11.04 13.5904 11.04C13.5404 11.04 13.4804 11.03 13.4304 11.02C12.4104 10.74 11.3304 10.74 10.3104 11.02C9.98039 11.11 9.65039 10.92 9.56039 10.59C9.47039 10.27 9.66039 9.93 9.99039 9.84C11.2204 9.5 12.5204 9.5 13.7504 9.84C14.0804 9.93 14.2704 10.26 14.1804 10.59ZM15.0304 7.82C14.9404 8.07 14.7104 8.22 14.4604 8.22C14.3904 8.22 14.3204 8.21 14.2504 8.18C12.7204 7.62 11.0404 7.62 9.51039 8.18C9.19039 8.3 8.84039 8.14 8.72039 7.82C8.61039 7.51 8.77039 7.16 9.09039 7.04C10.8904 6.39 12.8704 6.39 14.6604 7.04C14.9804 7.16 15.1404 7.51 15.0304 7.82Z" fill="url(#paint1_linear_15074_22313)"/>
<defs>
<linearGradient id="paint0_linear_15074_22313" x1="21.1302" y1="21.93" x2="10.4669" y2="5.31235" gradientUnits="userSpaceOnUse">
<stop stop-color="#185A97"/>
<stop offset="1" stop-color="#53AE94"/>
</linearGradient>
<linearGradient id="paint1_linear_15074_22313" x1="18.1004" y1="18.89" x2="2.06619" y2="7.30816" gradientUnits="userSpaceOnUse">
<stop stop-color="#185A97"/>
<stop offset="1" stop-color="#53AE94"/>
</linearGradient>
</defs>
</svg>
