<svg width="24" height="24" viewBox="0 0 24 24" fill="none" xmlns="http://www.w3.org/2000/svg">
<path d="M14 5.5H10M20 7V17C20 21 19 22 15 22H9C5 22 4 21 4 17V7C4 3 5 2 9 2H15C19 2 20 3 20 7Z" stroke="#185A97" stroke-width="1.5" stroke-linecap="round" stroke-linejoin="round"/>
<path d="M12.0002 19.101C12.4113 19.101 12.8055 18.9377 13.0962 18.647C13.3869 18.3563 13.5502 17.9621 13.5502 17.551C13.5502 17.1399 13.3869 16.7456 13.0962 16.455C12.8055 16.1643 12.4113 16.001 12.0002 16.001C11.5891 16.001 11.1949 16.1643 10.9042 16.455C10.6135 16.7456 10.4502 17.1399 10.4502 17.551C10.4502 17.9621 10.6135 18.3563 10.9042 18.647C11.1949 18.9377 11.5891 19.101 12.0002 19.101Z" stroke="#185A97" stroke-width="1.5" stroke-linecap="round" stroke-linejoin="round"/>
</svg>
