<svg width="24" height="24" viewBox="0 0 24 24" fill="none" xmlns="http://www.w3.org/2000/svg">
    <path
        d="M9.70615 4H13.5581C17.1895 4 19.0056 4 20.1333 5.11953C20.946 5.92479 21.1733 7.08444 21.2369 9.01496H2.02734C2.0909 7.08444 2.31816 5.92479 3.13092 5.11953C4.25857 4 6.07475 4 9.70615 4Z"
        fill="#000" />
    <path fill-rule="evenodd" clip-rule="evenodd"
        d="M21.2596 12.4227L20.8657 12.032C20.6645 11.8324 20.4257 11.6741 20.1628 11.5661C19.8999 11.4581 19.6182 11.4025 19.3336 11.4025C19.0491 11.4025 18.7673 11.4581 18.5045 11.5661C18.2416 11.6741 18.0027 11.8324 17.8015 12.032L17.0302 12.7971C16.8516 12.3259 16.512 11.9318 16.0706 11.6835C15.6292 11.4352 15.1139 11.3483 14.6145 11.4381C14.1152 11.5279 13.6635 11.7886 13.338 12.1749C13.0125 12.5611 12.834 13.0484 12.8335 13.5518V15.2368C12.4281 15.2818 12.0436 15.4394 11.7245 15.6915C11.4053 15.9437 11.1644 16.2801 11.0295 16.662C10.8946 17.0439 10.8711 17.4559 10.9618 17.8505C11.0525 18.2451 11.2537 18.6063 11.5422 18.8924L11.936 19.2831H9.70384C6.07244 19.2831 4.25626 19.2831 3.12861 18.1636C2 17.045 2 15.2435 2 11.6413C2 11.2191 2 10.8217 2.00193 10.4473H21.2577C21.2596 10.8217 21.2596 11.2191 21.2596 11.6413V12.4227ZM5.85192 14.7458C5.66037 14.7458 5.47667 14.8213 5.34122 14.9556C5.20578 15.09 5.12968 15.2722 5.12968 15.4622C5.12968 15.6522 5.20578 15.8345 5.34122 15.9688C5.47667 16.1032 5.66037 16.1786 5.85192 16.1786H9.70384C9.89539 16.1786 10.0791 16.1032 10.2145 15.9688C10.35 15.8345 10.4261 15.6522 10.4261 15.4622C10.4261 15.2722 10.35 15.09 10.2145 14.9556C10.0791 14.8213 9.89539 14.7458 9.70384 14.7458H5.85192Z"
        fill="#000" />
    <path fill-rule="evenodd" clip-rule="evenodd"
        d="M15.0021 12.8359C15.1937 12.8359 15.3774 12.9114 15.5128 13.0458C15.6483 13.1801 15.7244 13.3624 15.7244 13.5524V17.5548L16.4177 16.867C16.4838 16.7966 16.5636 16.7402 16.6522 16.701C16.7408 16.6618 16.8364 16.6408 16.9334 16.6391C17.0304 16.6374 17.1267 16.6551 17.2166 16.6911C17.3065 16.7272 17.3882 16.7808 17.4568 16.8488C17.5254 16.9169 17.5795 16.9979 17.6158 17.0871C17.6521 17.1763 17.67 17.2719 17.6682 17.368C17.6665 17.4642 17.6453 17.5591 17.6058 17.647C17.5664 17.7349 17.5094 17.814 17.4385 17.8795L15.5125 19.79C15.3771 19.9242 15.1935 19.9995 15.0021 19.9995C14.8108 19.9995 14.6272 19.9242 14.4918 19.79L12.5658 17.8795C12.4949 17.814 12.4379 17.7349 12.3985 17.647C12.359 17.5591 12.3378 17.4642 12.336 17.368C12.3343 17.2719 12.3522 17.1763 12.3885 17.0871C12.4248 16.9979 12.4789 16.9169 12.5475 16.8488C12.6161 16.7808 12.6978 16.7272 12.7877 16.6911C12.8776 16.6551 12.9739 16.6374 13.0709 16.6391C13.1679 16.6408 13.2635 16.6618 13.3521 16.701C13.4407 16.7402 13.5204 16.7966 13.5866 16.867L14.2799 17.5548V13.5524C14.2799 13.3624 14.356 13.1801 14.4915 13.0458C14.6269 12.9114 14.8106 12.8359 15.0021 12.8359ZM18.8252 13.0461C18.9606 12.9119 19.1442 12.8366 19.3356 12.8366C19.527 12.8366 19.7105 12.9119 19.8459 13.0461L21.7719 14.9565C21.8429 15.0221 21.8998 15.1012 21.9392 15.1891C21.9787 15.277 21.9999 15.3719 22.0017 15.4681C22.0034 15.5642 21.9855 15.6598 21.9492 15.749C21.9129 15.8382 21.8588 15.9192 21.7902 15.9873C21.7216 16.0553 21.64 16.1089 21.55 16.145C21.4601 16.181 21.3638 16.1987 21.2668 16.197C21.1698 16.1953 21.0742 16.1742 20.9856 16.1351C20.897 16.0959 20.8173 16.0395 20.7511 15.9691L20.0578 15.2813V19.2837C20.0578 19.4737 19.9817 19.656 19.8463 19.7903C19.7108 19.9247 19.5271 20.0002 19.3356 20.0002C19.144 20.0002 18.9603 19.9247 18.8249 19.7903C18.6894 19.656 18.6133 19.4737 18.6133 19.2837V15.2813L17.92 15.9691C17.8539 16.0395 17.7741 16.0959 17.6855 16.1351C17.5969 16.1742 17.5013 16.1953 17.4043 16.197C17.3073 16.1987 17.211 16.181 17.1211 16.145C17.0312 16.1089 16.9495 16.0553 16.8809 15.9873C16.8123 15.9192 16.7582 15.8382 16.7219 15.749C16.6856 15.6598 16.6677 15.5642 16.6695 15.4681C16.6712 15.3719 16.6924 15.277 16.7319 15.1891C16.7713 15.1012 16.8283 15.0221 16.8992 14.9565L18.8252 13.0461Z"
        fill="#000" />
</svg>