<svg width="24" height="24" viewBox="0 0 24 24" fill="none" xmlns="http://www.w3.org/2000/svg">
    <g transform="translate(0 0) scale(1.5)">

        <path
            d="M6.10768 7.24707C6.04102 7.24041 5.96102 7.24041 5.88768 7.24707C4.30102 7.19374 3.04102 5.89374 3.04102 4.29374C3.04102 2.66041 4.36102 1.33374 6.00102 1.33374C7.63435 1.33374 8.96101 2.66041 8.96101 4.29374C8.95435 5.89374 7.69435 7.19374 6.10768 7.24707Z"
            fill="#000" />
        <path
            d="M10.9402 2.66705C12.2335 2.66705 13.2735 3.71372 13.2735 5.00039C13.2735 6.26039 12.2735 7.28705 11.0268 7.33372C10.9735 7.32705 10.9135 7.32705 10.8535 7.33372"
            fill="#000" />
        <path
            d="M2.77445 9.70705C1.16112 10.7871 1.16112 12.5471 2.77445 13.6204C4.60779 14.8471 7.61445 14.8471 9.44779 13.6204C11.0611 12.5404 11.0611 10.7804 9.44779 9.70705C7.62112 8.48705 4.61445 8.48705 2.77445 9.70705Z"
            fill="#000" />
        <path
            d="M12.2266 13.3337C12.7066 13.2337 13.1599 13.0404 13.5332 12.7537C14.5732 11.9737 14.5732 10.6871 13.5332 9.90707C13.1666 9.62707 12.7199 9.44041 12.2466 9.33374"
            fill="#000" />
    </g>
</svg>
  