<svg width="24" height="24" viewBox="0 0 24 24" fill="none" xmlns="http://www.w3.org/2000/svg">
    <path
        d="M19.7501 6.80647L19.4734 6.89647L18.0001 7.02647L17.5767 7.69314L17.2734 7.59647L16.0767 6.53314L15.9034 5.9798L15.6667 5.38647L14.9234 4.7198L14.0467 4.5498L14.0267 4.9498L14.8867 5.7898L15.3067 6.28314L14.8334 6.53314L14.4501 6.4198L13.8734 6.17647V5.71314L13.1401 5.3998L12.8901 6.49647L12.1267 6.66647L12.2034 7.2798L13.2034 7.4698L13.3767 6.49314L14.1967 6.61647L14.5767 6.8398H15.1901L15.6001 7.66647L16.7134 8.79314L16.6301 9.23314L15.7334 9.11981L14.1867 9.89981L13.0734 11.2331L12.9301 11.8265H12.5267L11.7834 11.4931L11.0601 11.8265L11.2401 12.5898L11.5534 12.2265H12.1101L12.0701 12.8931L12.5301 13.0265L13.0001 13.5565L13.7334 13.3331L14.5901 13.4665L15.5901 13.7331L16.0834 13.7931L16.9234 14.7465L18.5467 15.6998L17.4967 17.6998L16.3901 18.2131L15.9701 19.3598L14.3667 20.4298L14.1967 21.0465C15.6534 20.6906 17.0029 19.989 18.1309 19.001C19.259 18.0131 20.1324 16.7679 20.6772 15.3709C21.222 13.9738 21.4222 12.4661 21.2608 10.9753C21.0994 9.48452 20.5812 8.05455 19.7501 6.80647Z"
        fill="#000" />
    <path
        d="M13.0732 16.8766L12.4065 15.6166L13.0165 14.3332L12.3932 14.1466L11.6932 13.4432L10.1399 13.1099L9.62654 11.9999V12.6399H9.39987L8.06654 10.8266V9.33324L7.08654 7.7399L5.52987 8.01657H4.47654L3.94654 7.68324L4.61321 7.1499L3.94654 7.30324C3.12114 8.72068 2.68386 10.3306 2.67876 11.9709C2.67365 13.6111 3.10089 15.2237 3.91745 16.6463C4.73401 18.0688 5.91104 19.2511 7.32997 20.0739C8.7489 20.8967 10.3596 21.3311 11.9999 21.3332C12.3912 21.3292 12.7819 21.3013 13.1699 21.2499L13.0732 20.1199C13.0732 20.1199 13.5032 18.4532 13.5032 18.3866C13.5032 18.3199 13.0732 16.8766 13.0732 16.8766Z"
        fill="#000" />
    <path
        d="M6.13666 5.66676L7.80333 5.43343L8.56666 5.01677L9.42666 5.26343L10.8 5.18677L11.2733 4.44677L11.9567 4.5601L13.6233 4.40343L14.0833 3.89677L14.75 3.46677L15.6633 3.60343L15.9967 3.55343C14.1229 2.66519 12.006 2.42845 9.98229 2.88078C7.95856 3.33311 6.14396 4.4486 4.82666 6.0501L6.13666 5.66676ZM12.3933 3.59343L13.3333 3.0701L13.9467 3.42343L13.06 4.0901L12.2133 4.17677L11.8333 3.9301L12.3933 3.59343ZM9.56999 3.66677L9.99999 3.84677L10.5433 3.66677L10.8433 4.18677L9.56999 4.5201L8.95999 4.16677C8.95999 4.16677 9.55666 3.78343 9.56999 3.66677Z"
        fill="#000" />
</svg>